<svg xmlns="http://www.w3.org/2000/svg" viewBox="0 0 85 85">
  <path d="M50.5 31.9H34.9c-.8 0-1.4.2-1.9.7-.5.5-.7 1.1-.7 1.9v46.9c0 .8.2 1.4.7 1.9.5.5 1.1.7 1.9.7h15.6c.8 0 1.4-.2 1.9-.7.5-.5.7-1.1.7-1.9V34.5c0-.8-.2-1.4-.7-1.9-.5-.5-1.1-.7-1.9-.7zM19.3 52.7H3.6c-.8 0-1.4.2-1.9.7-.5.5-.7 1.2-.7 1.9v26.1c0 .8.2 1.4.7 1.9.5.5 1.1.7 1.9.7h15.6c.8 0 1.4-.2 1.9-.7.5-.5.7-1.1.7-1.9V55.3c0-.8-.2-1.4-.7-1.9-.5-.4-1.1-.7-1.8-.7zM81.8.6H66.2c-.8 0-1.4.2-1.9.7-.5.5-.7 1.1-.7 1.9v78.2c0 .8.2 1.4.7 1.9.5.5 1.1.7 1.9.7h15.6c.8 0 1.4-.2 1.9-.7.5-.5.7-1.1.7-1.9V3.2c0-.8-.2-1.4-.7-1.9-.5-.5-1.1-.7-1.9-.7z"/>
</svg>
