<svg xmlns="http://www.w3.org/2000/svg" viewBox="0 0 85 85">
  <path d="M47.9 37.1v42.1H37.1V37.1h10.8m2.4-5H34.7c-.8 0-1.4.2-1.9.7s-.7 1.1-.7 1.9v46.9c0 .8.2 1.4.7 1.9s1.1.7 1.9.7h15.6c.8 0 1.4-.2 1.9-.7s.7-1.1.7-1.9V34.7c0-.8-.2-1.4-.7-1.9s-1.1-.7-1.9-.7zM19.1 52.9H3.4c-.8 0-1.4.2-1.9.7s-.7 1.2-.7 1.9v26.1c0 .8.2 1.4.7 1.9s1.1.7 1.9.7H19c.8 0 1.4-.2 1.9-.7s.7-1.1.7-1.9V55.5c0-.8-.2-1.4-.7-1.9-.5-.4-1.1-.7-1.8-.7zM79.2 5.8v73.4H68.4V5.8h10.8m2.4-5H66c-.8 0-1.4.2-1.9.7-.5.5-.7 1.1-.7 1.9v78.2c0 .8.2 1.4.7 1.9.5.5 1.1.7 1.9.7h15.6c.8 0 1.4-.2 1.9-.7s.7-1.1.7-1.9V3.4c0-.8-.2-1.4-.7-1.9S82.4.8 81.6.8z"/>
</svg>
